<?xml version="1.0" encoding="utf-8"?>
<!-- Generator: Adobe Illustrator 23.0.1, SVG Export Plug-In . SVG Version: 6.00 Build 0)  -->
<svg version="1.1" id="Layer_1" xmlns="http://www.w3.org/2000/svg" xmlns:xlink="http://www.w3.org/1999/xlink" x="0px" y="0px"
	 viewBox="0 0 435 180" style="enable-background:new 0 0 435 180;" xml:space="preserve">
<style type="text/css">
	.st0{fill:none;}
	.st1{enable-background:new    ;}
	.st2{fill:#00B5A3;}
</style>
<rect class="st0" width="435" height="180"/>
<g>
	<g>
		<g class="st1">
			<g>
				<g>
					<path class="st2" d="M138.9,62h-11V51.4h11V62z M138.9,122.5h-11V69.8h11V122.5z"/>
				</g>
				<g>
					<g>
						<path class="st2" d="M202.2,69.8l-15.3,45.5c-2.6,7.4-7.3,8.4-11.1,8.4c-5.6,0-9-2.6-11-8.4l-12.7-37.8h-5v-7.7h13.2
							l13.1,42.3c0.6,1.8,0.9,2.9,2.5,2.9c1.7,0,2-1.1,2.5-2.9l13.4-42.3H202.2z"/>
						<path class="st2" d="M229.3,69.8c14.2,0,24.1,9.4,24.1,22.8v8.3c0,13.4-9.9,22.8-24.1,22.8c-14.2,0-24.1-9.4-24.1-22.8v-8.3
							C205.1,79.2,215.1,69.8,229.3,69.8 M229.3,115c8.5,0,13.8-6.4,13.8-14.1v-8.3c0-7.7-5.2-14.1-13.8-14.1
							c-9,0-13.8,6.4-13.8,14.1v8.3C215.5,108.6,220.5,115,229.3,115"/>
						<path class="st2" d="M341,71.5c-5.5-1.4-14-2.4-20.3-2.4c-14.4,0-23.4,9.1-23.4,23.7v5.8c0,14.6,8.9,23.9,23.4,23.9
							c0.3,0,2.9,0,4.1-0.1v-8.8c-0.4,0-3.7,0.1-4.1,0.1c-7.8,0-13.1-6-13.1-15v-5.8c0-9,5.3-15,13.1-15c3.5,0,8.9,0.3,10.8,0.7
							l0.6,0.1v43.9h11V73.3C343,72.4,343,72,341,71.5"/>
						<rect x="353.6" y="51.4" class="st2" width="11" height="71"/>
						<path class="st2" d="M89.7,51.4H70.5v71h11.4V61.3h6.7c1.4,0,2.6,0.1,3.8,0.1c9.9,0.2,14.7,4.1,14.7,11.8c0,0.3,0,0.5,0,0.8
							c0,7.1-3.9,11.8-14.7,11.8c-1,0-2.1,0-3.2,0c0,2.7,0,7.8,0,9.5c1.1,0.1,2.2,0.1,3.2,0.1c15.5,0,26.4-6.1,26.4-21.4
							c0-0.3,0-0.6,0-0.9C118.9,57.4,107,51.4,89.7,51.4"/>
						<path class="st2" d="M272.8,58.5v11.3h17.9v8.5h-17.9V109c0,4.8,3.1,4.9,7.5,4.9h10.4v8.5h-14c-10.4,0-15-4.1-15-13.5V60
							L272.8,58.5z"/>
					</g>
				</g>
			</g>
		</g>
	</g>
	<path class="st2" d="M369.6,117.9c0-2.5,2-4.6,4.6-4.6c2.5,0,4.6,2.1,4.6,4.6s-2,4.6-4.6,4.6S369.6,120.4,369.6,117.9z
		 M374.2,113.9c-2.2,0-3.9,1.8-3.9,3.9s1.7,3.9,3.9,3.9c2.2,0,3.9-1.8,3.9-3.9C378.1,115.7,376.3,113.9,374.2,113.9z M373.2,120.3
		h-0.5v-5h1.4c1.3,0,1.9,0.6,1.9,1.5c0,0.7-0.4,1.2-1,1.4l1.3,2.1h-0.6l-1.2-1.9l-1.2,0.1L373.2,120.3L373.2,120.3z M374.1,117.9
		c0.8,0,1.3-0.4,1.3-1.1s-0.4-1.1-1.4-1.1h-0.8v2.2H374.1z"/>
</g>
</svg>
