<svg width="16" height="16" viewBox="0 0 16 16" fill="none" xmlns="http://www.w3.org/2000/svg">
    <path fill-rule="evenodd" clip-rule="evenodd" d="M8 15.3333C3.94992 15.3333 0.666672 12.0501 0.666672 8C0.666672 3.94991 3.94992 0.666664 8 0.666664C12.0501 0.666664 15.3333 3.94991 15.3333 8C15.3333 9.94492 14.5607 11.8102 13.1855 13.1854C11.8102 14.5607 9.94493 15.3333 8 15.3333ZM8.00001 1.58333C4.45618 1.58333 1.58334 4.45617 1.58334 8C1.58334 11.5438 4.45618 14.4167 8.00001 14.4167C11.5438 14.4167 14.4167 11.5438 14.4167 8C14.4167 4.45617 11.5438 1.58333 8.00001 1.58333V1.58333ZM8.73792 8L10.9654 5.7725C11.1212 5.59065 11.1107 5.31958 10.9414 5.15028C10.7721 4.98099 10.501 4.97052 10.3192 5.12625L8.09167 7.33083L5.85042 5.08958C5.66857 4.93385 5.3975 4.94432 5.2282 5.11362C5.05891 5.28291 5.04844 5.55398 5.20417 5.73583L7.44084 8L5.25 10.1633C5.11921 10.2753 5.06223 10.4512 5.10251 10.6186C5.14278 10.7861 5.27351 10.9168 5.44094 10.9571C5.60837 10.9974 5.78424 10.9404 5.89625 10.8096L8.0825 8.62333L10.255 10.7958C10.4369 10.9516 10.7079 10.9411 10.8772 10.7718C11.0465 10.6025 11.057 10.3314 10.9013 10.1496L8.73792 8Z" fill="#ADBBC4"/>
</svg>
