<?xml version="1.0" encoding="UTF-8" standalone="no"?>
<!DOCTYPE svg PUBLIC "-//W3C//DTD SVG 1.1//EN" "http://www.w3.org/Graphics/SVG/1.1/DTD/svg11.dtd">
<svg width="100%" height="100%" viewBox="0 0 36 36" version="1.1" xmlns="http://www.w3.org/2000/svg" xmlns:xlink="http://www.w3.org/1999/xlink" xml:space="preserve" xmlns:serif="http://www.serif.com/" style="fill-rule:evenodd;clip-rule:evenodd;stroke-linejoin:round;stroke-miterlimit:2;">
    <path d="M16.33,5.05C16.333,5.05 16.337,5.05 16.34,5.05C22.347,5.05 27.29,9.993 27.29,16C27.29,22.007 22.347,26.95 16.34,26.95C10.333,26.95 5.39,22.007 5.39,16C5.417,10.007 10.337,5.083 16.33,5.05M16.33,3C9.198,3 3.33,8.868 3.33,16C3.33,23.132 9.198,29 16.33,29C23.462,29 29.33,23.132 29.33,16C29.33,8.868 23.462,3 16.33,3Z" style="fill:rgb(73,175,217);fill-rule:nonzero;"/>
    <path d="M35,33.29L27.63,25.87L26.21,27.28L33.58,34.7C33.768,34.889 34.024,34.996 34.29,34.996C34.839,34.996 35.291,34.544 35.291,33.995C35.291,33.731 35.186,33.477 35,33.29Z" style="fill:rgb(73,175,217);fill-rule:nonzero;"/>
    <rect x="0" y="0" width="36" height="36" style="fill:rgb(73,175,217);fill-opacity:0;"/>
</svg>
